<svg width="233" height="58" viewBox="0 0 233 58" fill="none" xmlns="http://www.w3.org/2000/svg">
<path d="M4.22727 46V11.0909H16.0227C18.75 11.0909 20.9886 11.5568 22.7386 12.4886C24.4886 13.4091 25.7841 14.6761 26.625 16.2898C27.4659 17.9034 27.8864 19.7386 27.8864 21.7955C27.8864 23.8523 27.4659 25.6761 26.625 27.267C25.7841 28.858 24.4943 30.108 22.7557 31.017C21.017 31.9148 18.7955 32.3636 16.0909 32.3636H6.54545V28.5455H15.9545C17.8182 28.5455 19.3182 28.2727 20.4545 27.7273C21.6023 27.1818 22.4318 26.4091 22.9432 25.4091C23.4659 24.3977 23.7273 23.1932 23.7273 21.7955C23.7273 20.3977 23.4659 19.1761 22.9432 18.1307C22.4205 17.0852 21.5852 16.2784 20.4375 15.7102C19.2898 15.1307 17.7727 14.8409 15.8864 14.8409H8.45455V46H4.22727ZM20.6591 30.3182L29.25 46H24.3409L15.8864 30.3182H20.6591ZM34.3849 55.8182V19.8182H38.2713V23.9773H38.7486C39.044 23.5227 39.4531 22.9432 39.9759 22.2386C40.5099 21.5227 41.2713 20.8864 42.2599 20.3295C43.2599 19.7614 44.6122 19.4773 46.3168 19.4773C48.5213 19.4773 50.4645 20.0284 52.1463 21.1307C53.8281 22.233 55.1406 23.7955 56.0838 25.8182C57.027 27.8409 57.4986 30.2273 57.4986 32.9773C57.4986 35.75 57.027 38.1534 56.0838 40.1875C55.1406 42.2102 53.8338 43.7784 52.1634 44.892C50.4929 45.9943 48.5668 46.5455 46.3849 46.5455C44.7031 46.5455 43.3565 46.267 42.3452 45.7102C41.3338 45.142 40.5554 44.5 40.0099 43.7841C39.4645 43.0568 39.044 42.4545 38.7486 41.9773H38.4077V55.8182H34.3849ZM38.3395 32.9091C38.3395 34.8864 38.6293 36.6307 39.2088 38.142C39.7884 39.642 40.6349 40.8182 41.7486 41.6705C42.8622 42.5114 44.2259 42.9318 45.8395 42.9318C47.5213 42.9318 48.9247 42.4886 50.0497 41.6023C51.1861 40.7045 52.0384 39.5 52.6065 37.9886C53.1861 36.4659 53.4759 34.7727 53.4759 32.9091C53.4759 31.0682 53.1918 29.4091 52.6236 27.9318C52.0668 26.4432 51.2202 25.267 50.0838 24.4034C48.9588 23.5284 47.544 23.0909 45.8395 23.0909C44.2031 23.0909 42.8281 23.5057 41.7145 24.3352C40.6009 25.1534 39.7599 26.3011 39.1918 27.7784C38.6236 29.2443 38.3395 30.9545 38.3395 32.9091ZM78.1577 46L93.7713 15.1136V14.8409H75.7713V11.0909H98.1349V15.0455L82.5895 46H78.1577ZM115.134 10.6136C116.565 10.625 117.997 10.8977 119.429 11.4318C120.861 11.9659 122.168 12.8523 123.349 14.0909C124.531 15.3182 125.48 16.9943 126.196 19.1193C126.912 21.2443 127.27 23.9091 127.27 27.1136C127.27 30.2159 126.974 32.9716 126.384 35.3807C125.804 37.7784 124.963 39.8011 123.861 41.4489C122.77 43.0966 121.44 44.3466 119.872 45.1989C118.315 46.0511 116.554 46.4773 114.588 46.4773C112.634 46.4773 110.889 46.0909 109.355 45.3182C107.832 44.5341 106.582 43.4489 105.605 42.0625C104.639 40.6648 104.02 39.0455 103.747 37.2045H107.906C108.281 38.8068 109.026 40.1307 110.139 41.1761C111.264 42.2102 112.747 42.7273 114.588 42.7273C117.281 42.7273 119.406 41.5511 120.963 39.1989C122.531 36.8466 123.315 33.5227 123.315 29.2273H123.043C122.406 30.1818 121.651 31.0057 120.776 31.6989C119.901 32.392 118.929 32.9261 117.861 33.3011C116.793 33.6761 115.656 33.8636 114.452 33.8636C112.452 33.8636 110.616 33.3693 108.946 32.3807C107.287 31.3807 105.957 30.0114 104.957 28.2727C103.969 26.5227 103.474 24.5227 103.474 22.2727C103.474 20.1364 103.952 18.1818 104.906 16.4091C105.872 14.625 107.224 13.2045 108.963 12.1477C110.713 11.0909 112.77 10.5795 115.134 10.6136ZM115.134 14.3636C113.702 14.3636 112.412 14.7216 111.264 15.4375C110.128 16.142 109.224 17.0966 108.554 18.3011C107.895 19.4943 107.565 20.8182 107.565 22.2727C107.565 23.7273 107.884 25.0511 108.52 26.2443C109.168 27.4261 110.048 28.3693 111.162 29.0739C112.287 29.767 113.565 30.1136 114.997 30.1136C116.077 30.1136 117.082 29.9034 118.014 29.483C118.946 29.0511 119.759 28.4659 120.452 27.7273C121.156 26.9773 121.707 26.1307 122.105 25.1875C122.503 24.233 122.702 23.2386 122.702 22.2045C122.702 20.8409 122.372 19.5625 121.713 18.3693C121.065 17.1761 120.168 16.2102 119.02 15.4716C117.884 14.733 116.588 14.3636 115.134 14.3636ZM135.754 46.2727C134.913 46.2727 134.192 45.9716 133.589 45.3693C132.987 44.767 132.686 44.0455 132.686 43.2045C132.686 42.3636 132.987 41.642 133.589 41.0398C134.192 40.4375 134.913 40.1364 135.754 40.1364C136.595 40.1364 137.317 40.4375 137.919 41.0398C138.521 41.642 138.822 42.3636 138.822 43.2045C138.822 43.7614 138.68 44.2727 138.396 44.7386C138.124 45.2045 137.754 45.5795 137.288 45.8636C136.834 46.1364 136.322 46.2727 135.754 46.2727ZM156.141 46.4773C153.572 46.4773 151.385 45.7784 149.578 44.3807C147.771 42.9716 146.391 40.9318 145.436 38.2614C144.482 35.5795 144.004 32.3409 144.004 28.5455C144.004 24.7727 144.482 21.5511 145.436 18.8807C146.402 16.1989 147.788 14.1534 149.595 12.7443C151.413 11.3239 153.595 10.6136 156.141 10.6136C158.686 10.6136 160.862 11.3239 162.669 12.7443C164.487 14.1534 165.874 16.1989 166.828 18.8807C167.794 21.5511 168.277 24.7727 168.277 28.5455C168.277 32.3409 167.8 35.5795 166.845 38.2614C165.891 40.9318 164.51 42.9716 162.703 44.3807C160.896 45.7784 158.709 46.4773 156.141 46.4773ZM156.141 42.7273C158.686 42.7273 160.663 41.5 162.072 39.0455C163.482 36.5909 164.186 33.0909 164.186 28.5455C164.186 25.5227 163.862 22.9489 163.214 20.8239C162.578 18.6989 161.658 17.0795 160.453 15.9659C159.26 14.8523 157.822 14.2955 156.141 14.2955C153.618 14.2955 151.646 15.5398 150.226 18.0284C148.805 20.5057 148.095 24.0114 148.095 28.5455C148.095 31.5682 148.413 34.1364 149.05 36.25C149.686 38.3636 150.601 39.9716 151.794 41.0739C152.999 42.1761 154.447 42.7273 156.141 42.7273ZM186.141 46.4773C183.572 46.4773 181.385 45.7784 179.578 44.3807C177.771 42.9716 176.391 40.9318 175.436 38.2614C174.482 35.5795 174.004 32.3409 174.004 28.5455C174.004 24.7727 174.482 21.5511 175.436 18.8807C176.402 16.1989 177.788 14.1534 179.595 12.7443C181.413 11.3239 183.595 10.6136 186.141 10.6136C188.686 10.6136 190.862 11.3239 192.669 12.7443C194.487 14.1534 195.874 16.1989 196.828 18.8807C197.794 21.5511 198.277 24.7727 198.277 28.5455C198.277 32.3409 197.8 35.5795 196.845 38.2614C195.891 40.9318 194.51 42.9716 192.703 44.3807C190.896 45.7784 188.709 46.4773 186.141 46.4773ZM186.141 42.7273C188.686 42.7273 190.663 41.5 192.072 39.0455C193.482 36.5909 194.186 33.0909 194.186 28.5455C194.186 25.5227 193.862 22.9489 193.214 20.8239C192.578 18.6989 191.658 17.0795 190.453 15.9659C189.26 14.8523 187.822 14.2955 186.141 14.2955C183.618 14.2955 181.646 15.5398 180.226 18.0284C178.805 20.5057 178.095 24.0114 178.095 28.5455C178.095 31.5682 178.413 34.1364 179.05 36.25C179.686 38.3636 180.601 39.9716 181.794 41.0739C182.999 42.1761 184.447 42.7273 186.141 42.7273ZM216.141 46.4773C213.572 46.4773 211.385 45.7784 209.578 44.3807C207.771 42.9716 206.391 40.9318 205.436 38.2614C204.482 35.5795 204.004 32.3409 204.004 28.5455C204.004 24.7727 204.482 21.5511 205.436 18.8807C206.402 16.1989 207.788 14.1534 209.595 12.7443C211.413 11.3239 213.595 10.6136 216.141 10.6136C218.686 10.6136 220.862 11.3239 222.669 12.7443C224.487 14.1534 225.874 16.1989 226.828 18.8807C227.794 21.5511 228.277 24.7727 228.277 28.5455C228.277 32.3409 227.8 35.5795 226.845 38.2614C225.891 40.9318 224.51 42.9716 222.703 44.3807C220.896 45.7784 218.709 46.4773 216.141 46.4773ZM216.141 42.7273C218.686 42.7273 220.663 41.5 222.072 39.0455C223.482 36.5909 224.186 33.0909 224.186 28.5455C224.186 25.5227 223.862 22.9489 223.214 20.8239C222.578 18.6989 221.658 17.0795 220.453 15.9659C219.26 14.8523 217.822 14.2955 216.141 14.2955C213.618 14.2955 211.646 15.5398 210.226 18.0284C208.805 20.5057 208.095 24.0114 208.095 28.5455C208.095 31.5682 208.413 34.1364 209.05 36.25C209.686 38.3636 210.601 39.9716 211.794 41.0739C212.999 42.1761 214.447 42.7273 216.141 42.7273Z" fill="#475569"/>
<path d="M7 33H228" stroke="#F43F5E" stroke-width="10" stroke-linecap="round"/>
</svg>
