<svg width="235" height="58" viewBox="0 0 235 58" fill="none" xmlns="http://www.w3.org/2000/svg">
<path d="M4.22727 46V11.0909H16.0227C18.75 11.0909 20.9886 11.5568 22.7386 12.4886C24.4886 13.4091 25.7841 14.6761 26.625 16.2898C27.4659 17.9034 27.8864 19.7386 27.8864 21.7955C27.8864 23.8523 27.4659 25.6761 26.625 27.267C25.7841 28.858 24.4943 30.108 22.7557 31.017C21.017 31.9148 18.7955 32.3636 16.0909 32.3636H6.54545V28.5455H15.9545C17.8182 28.5455 19.3182 28.2727 20.4545 27.7273C21.6023 27.1818 22.4318 26.4091 22.9432 25.4091C23.4659 24.3977 23.7273 23.1932 23.7273 21.7955C23.7273 20.3977 23.4659 19.1761 22.9432 18.1307C22.4205 17.0852 21.5852 16.2784 20.4375 15.7102C19.2898 15.1307 17.7727 14.8409 15.8864 14.8409H8.45455V46H4.22727ZM20.6591 30.3182L29.25 46H24.3409L15.8864 30.3182H20.6591ZM34.3849 55.8182V19.8182H38.2713V23.9773H38.7486C39.044 23.5227 39.4531 22.9432 39.9759 22.2386C40.5099 21.5227 41.2713 20.8864 42.2599 20.3295C43.2599 19.7614 44.6122 19.4773 46.3168 19.4773C48.5213 19.4773 50.4645 20.0284 52.1463 21.1307C53.8281 22.233 55.1406 23.7955 56.0838 25.8182C57.027 27.8409 57.4986 30.2273 57.4986 32.9773C57.4986 35.75 57.027 38.1534 56.0838 40.1875C55.1406 42.2102 53.8338 43.7784 52.1634 44.892C50.4929 45.9943 48.5668 46.5455 46.3849 46.5455C44.7031 46.5455 43.3565 46.267 42.3452 45.7102C41.3338 45.142 40.5554 44.5 40.0099 43.7841C39.4645 43.0568 39.044 42.4545 38.7486 41.9773H38.4077V55.8182H34.3849ZM38.3395 32.9091C38.3395 34.8864 38.6293 36.6307 39.2088 38.142C39.7884 39.642 40.6349 40.8182 41.7486 41.6705C42.8622 42.5114 44.2259 42.9318 45.8395 42.9318C47.5213 42.9318 48.9247 42.4886 50.0497 41.6023C51.1861 40.7045 52.0384 39.5 52.6065 37.9886C53.1861 36.4659 53.4759 34.7727 53.4759 32.9091C53.4759 31.0682 53.1918 29.4091 52.6236 27.9318C52.0668 26.4432 51.2202 25.267 50.0838 24.4034C48.9588 23.5284 47.544 23.0909 45.8395 23.0909C44.2031 23.0909 42.8281 23.5057 41.7145 24.3352C40.6009 25.1534 39.7599 26.3011 39.1918 27.7784C38.6236 29.2443 38.3395 30.9545 38.3395 32.9091ZM88.6577 46.4773C87.2259 46.4545 85.794 46.1818 84.3622 45.6591C82.9304 45.1364 81.6236 44.2557 80.4418 43.017C79.2599 41.767 78.3111 40.0795 77.5952 37.9545C76.8793 35.8182 76.5213 33.1364 76.5213 29.9091C76.5213 26.8182 76.8111 24.0795 77.3906 21.6932C77.9702 19.2955 78.8111 17.2784 79.9134 15.642C81.0156 13.9943 82.3452 12.7443 83.902 11.892C85.4702 11.0398 87.2372 10.6136 89.2031 10.6136C91.1577 10.6136 92.8963 11.0057 94.419 11.7898C95.9531 12.5625 97.2031 13.642 98.169 15.0284C99.1349 16.4148 99.7599 18.0114 100.044 19.8182H95.8849C95.4986 18.25 94.7486 16.9489 93.6349 15.9148C92.5213 14.8807 91.044 14.3636 89.2031 14.3636C86.4986 14.3636 84.3679 15.5398 82.8111 17.892C81.2656 20.2443 80.4872 23.5455 80.4759 27.7955H80.7486C81.3849 26.8295 82.1406 26.0057 83.0156 25.3239C83.902 24.6307 84.8793 24.0966 85.9474 23.7216C87.0156 23.3466 88.1463 23.1591 89.3395 23.1591C91.3395 23.1591 93.169 23.6591 94.8281 24.6591C96.4872 25.6477 97.8168 27.017 98.8168 28.767C99.8168 30.5057 100.317 32.5 100.317 34.75C100.317 36.9091 99.8338 38.8864 98.8679 40.6818C97.902 42.4659 96.544 43.8864 94.794 44.9432C93.0554 45.9886 91.0099 46.5 88.6577 46.4773ZM88.6577 42.7273C90.0895 42.7273 91.3736 42.3693 92.5099 41.6534C93.6577 40.9375 94.5611 39.9773 95.2202 38.7727C95.8906 37.5682 96.2259 36.2273 96.2259 34.75C96.2259 33.3068 95.902 31.9943 95.2543 30.8125C94.6179 29.6193 93.7372 28.6705 92.6122 27.9659C91.4986 27.2614 90.2259 26.9091 88.794 26.9091C87.7145 26.9091 86.7088 27.125 85.777 27.5568C84.8452 27.9773 84.027 28.5568 83.3224 29.2955C82.6293 30.0341 82.0838 30.8807 81.6861 31.8352C81.2884 32.7784 81.0895 33.7727 81.0895 34.8182C81.0895 36.2045 81.4134 37.5 82.0611 38.7045C82.7202 39.9091 83.6179 40.8807 84.7543 41.6193C85.902 42.358 87.2031 42.7273 88.6577 42.7273ZM118.134 10.6136C119.565 10.625 120.997 10.8977 122.429 11.4318C123.861 11.9659 125.168 12.8523 126.349 14.0909C127.531 15.3182 128.48 16.9943 129.196 19.1193C129.912 21.2443 130.27 23.9091 130.27 27.1136C130.27 30.2159 129.974 32.9716 129.384 35.3807C128.804 37.7784 127.963 39.8011 126.861 41.4489C125.77 43.0966 124.44 44.3466 122.872 45.1989C121.315 46.0511 119.554 46.4773 117.588 46.4773C115.634 46.4773 113.889 46.0909 112.355 45.3182C110.832 44.5341 109.582 43.4489 108.605 42.0625C107.639 40.6648 107.02 39.0455 106.747 37.2045H110.906C111.281 38.8068 112.026 40.1307 113.139 41.1761C114.264 42.2102 115.747 42.7273 117.588 42.7273C120.281 42.7273 122.406 41.5511 123.963 39.1989C125.531 36.8466 126.315 33.5227 126.315 29.2273H126.043C125.406 30.1818 124.651 31.0057 123.776 31.6989C122.901 32.392 121.929 32.9261 120.861 33.3011C119.793 33.6761 118.656 33.8636 117.452 33.8636C115.452 33.8636 113.616 33.3693 111.946 32.3807C110.287 31.3807 108.957 30.0114 107.957 28.2727C106.969 26.5227 106.474 24.5227 106.474 22.2727C106.474 20.1364 106.952 18.1818 107.906 16.4091C108.872 14.625 110.224 13.2045 111.963 12.1477C113.713 11.0909 115.77 10.5795 118.134 10.6136ZM118.134 14.3636C116.702 14.3636 115.412 14.7216 114.264 15.4375C113.128 16.142 112.224 17.0966 111.554 18.3011C110.895 19.4943 110.565 20.8182 110.565 22.2727C110.565 23.7273 110.884 25.0511 111.52 26.2443C112.168 27.4261 113.048 28.3693 114.162 29.0739C115.287 29.767 116.565 30.1136 117.997 30.1136C119.077 30.1136 120.082 29.9034 121.014 29.483C121.946 29.0511 122.759 28.4659 123.452 27.7273C124.156 26.9773 124.707 26.1307 125.105 25.1875C125.503 24.233 125.702 23.2386 125.702 22.2045C125.702 20.8409 125.372 19.5625 124.713 18.3693C124.065 17.1761 123.168 16.2102 122.02 15.4716C120.884 14.733 119.588 14.3636 118.134 14.3636ZM138.754 46.2727C137.913 46.2727 137.192 45.9716 136.589 45.3693C135.987 44.767 135.686 44.0455 135.686 43.2045C135.686 42.3636 135.987 41.642 136.589 41.0398C137.192 40.4375 137.913 40.1364 138.754 40.1364C139.595 40.1364 140.317 40.4375 140.919 41.0398C141.521 41.642 141.822 42.3636 141.822 43.2045C141.822 43.7614 141.68 44.2727 141.396 44.7386C141.124 45.2045 140.754 45.5795 140.288 45.8636C139.834 46.1364 139.322 46.2727 138.754 46.2727ZM159.141 46.4773C156.572 46.4773 154.385 45.7784 152.578 44.3807C150.771 42.9716 149.391 40.9318 148.436 38.2614C147.482 35.5795 147.004 32.3409 147.004 28.5455C147.004 24.7727 147.482 21.5511 148.436 18.8807C149.402 16.1989 150.788 14.1534 152.595 12.7443C154.413 11.3239 156.595 10.6136 159.141 10.6136C161.686 10.6136 163.862 11.3239 165.669 12.7443C167.487 14.1534 168.874 16.1989 169.828 18.8807C170.794 21.5511 171.277 24.7727 171.277 28.5455C171.277 32.3409 170.8 35.5795 169.845 38.2614C168.891 40.9318 167.51 42.9716 165.703 44.3807C163.896 45.7784 161.709 46.4773 159.141 46.4773ZM159.141 42.7273C161.686 42.7273 163.663 41.5 165.072 39.0455C166.482 36.5909 167.186 33.0909 167.186 28.5455C167.186 25.5227 166.862 22.9489 166.214 20.8239C165.578 18.6989 164.658 17.0795 163.453 15.9659C162.26 14.8523 160.822 14.2955 159.141 14.2955C156.618 14.2955 154.646 15.5398 153.226 18.0284C151.805 20.5057 151.095 24.0114 151.095 28.5455C151.095 31.5682 151.413 34.1364 152.05 36.25C152.686 38.3636 153.601 39.9716 154.794 41.0739C155.999 42.1761 157.447 42.7273 159.141 42.7273ZM189.141 46.4773C186.572 46.4773 184.385 45.7784 182.578 44.3807C180.771 42.9716 179.391 40.9318 178.436 38.2614C177.482 35.5795 177.004 32.3409 177.004 28.5455C177.004 24.7727 177.482 21.5511 178.436 18.8807C179.402 16.1989 180.788 14.1534 182.595 12.7443C184.413 11.3239 186.595 10.6136 189.141 10.6136C191.686 10.6136 193.862 11.3239 195.669 12.7443C197.487 14.1534 198.874 16.1989 199.828 18.8807C200.794 21.5511 201.277 24.7727 201.277 28.5455C201.277 32.3409 200.8 35.5795 199.845 38.2614C198.891 40.9318 197.51 42.9716 195.703 44.3807C193.896 45.7784 191.709 46.4773 189.141 46.4773ZM189.141 42.7273C191.686 42.7273 193.663 41.5 195.072 39.0455C196.482 36.5909 197.186 33.0909 197.186 28.5455C197.186 25.5227 196.862 22.9489 196.214 20.8239C195.578 18.6989 194.658 17.0795 193.453 15.9659C192.26 14.8523 190.822 14.2955 189.141 14.2955C186.618 14.2955 184.646 15.5398 183.226 18.0284C181.805 20.5057 181.095 24.0114 181.095 28.5455C181.095 31.5682 181.413 34.1364 182.05 36.25C182.686 38.3636 183.601 39.9716 184.794 41.0739C185.999 42.1761 187.447 42.7273 189.141 42.7273ZM219.141 46.4773C216.572 46.4773 214.385 45.7784 212.578 44.3807C210.771 42.9716 209.391 40.9318 208.436 38.2614C207.482 35.5795 207.004 32.3409 207.004 28.5455C207.004 24.7727 207.482 21.5511 208.436 18.8807C209.402 16.1989 210.788 14.1534 212.595 12.7443C214.413 11.3239 216.595 10.6136 219.141 10.6136C221.686 10.6136 223.862 11.3239 225.669 12.7443C227.487 14.1534 228.874 16.1989 229.828 18.8807C230.794 21.5511 231.277 24.7727 231.277 28.5455C231.277 32.3409 230.8 35.5795 229.845 38.2614C228.891 40.9318 227.51 42.9716 225.703 44.3807C223.896 45.7784 221.709 46.4773 219.141 46.4773ZM219.141 42.7273C221.686 42.7273 223.663 41.5 225.072 39.0455C226.482 36.5909 227.186 33.0909 227.186 28.5455C227.186 25.5227 226.862 22.9489 226.214 20.8239C225.578 18.6989 224.658 17.0795 223.453 15.9659C222.26 14.8523 220.822 14.2955 219.141 14.2955C216.618 14.2955 214.646 15.5398 213.226 18.0284C211.805 20.5057 211.095 24.0114 211.095 28.5455C211.095 31.5682 211.413 34.1364 212.05 36.25C212.686 38.3636 213.601 39.9716 214.794 41.0739C215.999 42.1761 217.447 42.7273 219.141 42.7273Z" fill="#475569"/>
<path d="M7 33H228" stroke="#F43F5E" stroke-width="10" stroke-linecap="round"/>
</svg>
