<svg width="262" height="58" viewBox="0 0 262 58" fill="none" xmlns="http://www.w3.org/2000/svg">
<path d="M4.22727 46V11.0909H16.0227C18.75 11.0909 20.9886 11.5568 22.7386 12.4886C24.4886 13.4091 25.7841 14.6761 26.625 16.2898C27.4659 17.9034 27.8864 19.7386 27.8864 21.7955C27.8864 23.8523 27.4659 25.6761 26.625 27.267C25.7841 28.858 24.4943 30.108 22.7557 31.017C21.017 31.9148 18.7955 32.3636 16.0909 32.3636H6.54545V28.5455H15.9545C17.8182 28.5455 19.3182 28.2727 20.4545 27.7273C21.6023 27.1818 22.4318 26.4091 22.9432 25.4091C23.4659 24.3977 23.7273 23.1932 23.7273 21.7955C23.7273 20.3977 23.4659 19.1761 22.9432 18.1307C22.4205 17.0852 21.5852 16.2784 20.4375 15.7102C19.2898 15.1307 17.7727 14.8409 15.8864 14.8409H8.45455V46H4.22727ZM20.6591 30.3182L29.25 46H24.3409L15.8864 30.3182H20.6591ZM34.3849 55.8182V19.8182H38.2713V23.9773H38.7486C39.044 23.5227 39.4531 22.9432 39.9759 22.2386C40.5099 21.5227 41.2713 20.8864 42.2599 20.3295C43.2599 19.7614 44.6122 19.4773 46.3168 19.4773C48.5213 19.4773 50.4645 20.0284 52.1463 21.1307C53.8281 22.233 55.1406 23.7955 56.0838 25.8182C57.027 27.8409 57.4986 30.2273 57.4986 32.9773C57.4986 35.75 57.027 38.1534 56.0838 40.1875C55.1406 42.2102 53.8338 43.7784 52.1634 44.892C50.4929 45.9943 48.5668 46.5455 46.3849 46.5455C44.7031 46.5455 43.3565 46.267 42.3452 45.7102C41.3338 45.142 40.5554 44.5 40.0099 43.7841C39.4645 43.0568 39.044 42.4545 38.7486 41.9773H38.4077V55.8182H34.3849ZM38.3395 32.9091C38.3395 34.8864 38.6293 36.6307 39.2088 38.142C39.7884 39.642 40.6349 40.8182 41.7486 41.6705C42.8622 42.5114 44.2259 42.9318 45.8395 42.9318C47.5213 42.9318 48.9247 42.4886 50.0497 41.6023C51.1861 40.7045 52.0384 39.5 52.6065 37.9886C53.1861 36.4659 53.4759 34.7727 53.4759 32.9091C53.4759 31.0682 53.1918 29.4091 52.6236 27.9318C52.0668 26.4432 51.2202 25.267 50.0838 24.4034C48.9588 23.5284 47.544 23.0909 45.8395 23.0909C44.2031 23.0909 42.8281 23.5057 41.7145 24.3352C40.6009 25.1534 39.7599 26.3011 39.1918 27.7784C38.6236 29.2443 38.3395 30.9545 38.3395 32.9091ZM89.3395 11.0909V46H85.1122V15.5227H84.9077L76.3849 21.1818V16.8864L85.1122 11.0909H89.3395ZM110.493 10.6136C111.925 10.625 113.357 10.8977 114.788 11.4318C116.22 11.9659 117.527 12.8523 118.709 14.0909C119.891 15.3182 120.839 16.9943 121.555 19.1193C122.271 21.2443 122.629 23.9091 122.629 27.1136C122.629 30.2159 122.334 32.9716 121.743 35.3807C121.163 37.7784 120.322 39.8011 119.22 41.4489C118.129 43.0966 116.8 44.3466 115.232 45.1989C113.675 46.0511 111.913 46.4773 109.947 46.4773C107.993 46.4773 106.249 46.0909 104.714 45.3182C103.192 44.5341 101.942 43.4489 100.964 42.0625C99.9986 40.6648 99.3793 39.0455 99.1065 37.2045H103.266C103.641 38.8068 104.385 40.1307 105.499 41.1761C106.624 42.2102 108.107 42.7273 109.947 42.7273C112.641 42.7273 114.766 41.5511 116.322 39.1989C117.891 36.8466 118.675 33.5227 118.675 29.2273H118.402C117.766 30.1818 117.01 31.0057 116.135 31.6989C115.26 32.392 114.288 32.9261 113.22 33.3011C112.152 33.6761 111.016 33.8636 109.811 33.8636C107.811 33.8636 105.976 33.3693 104.305 32.3807C102.646 31.3807 101.317 30.0114 100.317 28.2727C99.3281 26.5227 98.8338 24.5227 98.8338 22.2727C98.8338 20.1364 99.3111 18.1818 100.266 16.4091C101.232 14.625 102.584 13.2045 104.322 12.1477C106.072 11.0909 108.129 10.5795 110.493 10.6136ZM110.493 14.3636C109.061 14.3636 107.771 14.7216 106.624 15.4375C105.487 16.142 104.584 17.0966 103.913 18.3011C103.254 19.4943 102.925 20.8182 102.925 22.2727C102.925 23.7273 103.243 25.0511 103.879 26.2443C104.527 27.4261 105.408 28.3693 106.521 29.0739C107.646 29.767 108.925 30.1136 110.357 30.1136C111.436 30.1136 112.442 29.9034 113.374 29.483C114.305 29.0511 115.118 28.4659 115.811 27.7273C116.516 26.9773 117.067 26.1307 117.464 25.1875C117.862 24.233 118.061 23.2386 118.061 22.2045C118.061 20.8409 117.732 19.5625 117.072 18.3693C116.425 17.1761 115.527 16.2102 114.379 15.4716C113.243 14.733 111.947 14.3636 110.493 14.3636ZM140.446 10.6136C141.878 10.625 143.31 10.8977 144.741 11.4318C146.173 11.9659 147.48 12.8523 148.662 14.0909C149.844 15.3182 150.793 16.9943 151.509 19.1193C152.224 21.2443 152.582 23.9091 152.582 27.1136C152.582 30.2159 152.287 32.9716 151.696 35.3807C151.116 37.7784 150.276 39.8011 149.173 41.4489C148.082 43.0966 146.753 44.3466 145.185 45.1989C143.628 46.0511 141.866 46.4773 139.901 46.4773C137.946 46.4773 136.202 46.0909 134.668 45.3182C133.145 44.5341 131.895 43.4489 130.918 42.0625C129.952 40.6648 129.332 39.0455 129.06 37.2045H133.219C133.594 38.8068 134.338 40.1307 135.452 41.1761C136.577 42.2102 138.06 42.7273 139.901 42.7273C142.594 42.7273 144.719 41.5511 146.276 39.1989C147.844 36.8466 148.628 33.5227 148.628 29.2273H148.355C147.719 30.1818 146.963 31.0057 146.088 31.6989C145.213 32.392 144.241 32.9261 143.173 33.3011C142.105 33.6761 140.969 33.8636 139.764 33.8636C137.764 33.8636 135.929 33.3693 134.259 32.3807C132.599 31.3807 131.27 30.0114 130.27 28.2727C129.281 26.5227 128.787 24.5227 128.787 22.2727C128.787 20.1364 129.264 18.1818 130.219 16.4091C131.185 14.625 132.537 13.2045 134.276 12.1477C136.026 11.0909 138.082 10.5795 140.446 10.6136ZM140.446 14.3636C139.014 14.3636 137.724 14.7216 136.577 15.4375C135.44 16.142 134.537 17.0966 133.866 18.3011C133.207 19.4943 132.878 20.8182 132.878 22.2727C132.878 23.7273 133.196 25.0511 133.832 26.2443C134.48 27.4261 135.361 28.3693 136.474 29.0739C137.599 29.767 138.878 30.1136 140.31 30.1136C141.389 30.1136 142.395 29.9034 143.327 29.483C144.259 29.0511 145.071 28.4659 145.764 27.7273C146.469 26.9773 147.02 26.1307 147.418 25.1875C147.815 24.233 148.014 23.2386 148.014 22.2045C148.014 20.8409 147.685 19.5625 147.026 18.3693C146.378 17.1761 145.48 16.2102 144.332 15.4716C143.196 14.733 141.901 14.3636 140.446 14.3636ZM161.067 46.2727C160.226 46.2727 159.504 45.9716 158.902 45.3693C158.3 44.767 157.999 44.0455 157.999 43.2045C157.999 42.3636 158.3 41.642 158.902 41.0398C159.504 40.4375 160.226 40.1364 161.067 40.1364C161.908 40.1364 162.629 40.4375 163.232 41.0398C163.834 41.642 164.135 42.3636 164.135 43.2045C164.135 43.7614 163.993 44.2727 163.709 44.7386C163.436 45.2045 163.067 45.5795 162.601 45.8636C162.146 46.1364 161.635 46.2727 161.067 46.2727ZM181.453 46.4773C178.885 46.4773 176.697 45.7784 174.891 44.3807C173.084 42.9716 171.703 40.9318 170.749 38.2614C169.794 35.5795 169.317 32.3409 169.317 28.5455C169.317 24.7727 169.794 21.5511 170.749 18.8807C171.714 16.1989 173.101 14.1534 174.908 12.7443C176.726 11.3239 178.908 10.6136 181.453 10.6136C183.999 10.6136 186.175 11.3239 187.982 12.7443C189.8 14.1534 191.186 16.1989 192.141 18.8807C193.107 21.5511 193.589 24.7727 193.589 28.5455C193.589 32.3409 193.112 35.5795 192.158 38.2614C191.203 40.9318 189.822 42.9716 188.016 44.3807C186.209 45.7784 184.021 46.4773 181.453 46.4773ZM181.453 42.7273C183.999 42.7273 185.976 41.5 187.385 39.0455C188.794 36.5909 189.499 33.0909 189.499 28.5455C189.499 25.5227 189.175 22.9489 188.527 20.8239C187.891 18.6989 186.97 17.0795 185.766 15.9659C184.572 14.8523 183.135 14.2955 181.453 14.2955C178.93 14.2955 176.959 15.5398 175.538 18.0284C174.118 20.5057 173.408 24.0114 173.408 28.5455C173.408 31.5682 173.726 34.1364 174.362 36.25C174.999 38.3636 175.913 39.9716 177.107 41.0739C178.311 42.1761 179.76 42.7273 181.453 42.7273ZM211.453 46.4773C208.885 46.4773 206.697 45.7784 204.891 44.3807C203.084 42.9716 201.703 40.9318 200.749 38.2614C199.794 35.5795 199.317 32.3409 199.317 28.5455C199.317 24.7727 199.794 21.5511 200.749 18.8807C201.714 16.1989 203.101 14.1534 204.908 12.7443C206.726 11.3239 208.908 10.6136 211.453 10.6136C213.999 10.6136 216.175 11.3239 217.982 12.7443C219.8 14.1534 221.186 16.1989 222.141 18.8807C223.107 21.5511 223.589 24.7727 223.589 28.5455C223.589 32.3409 223.112 35.5795 222.158 38.2614C221.203 40.9318 219.822 42.9716 218.016 44.3807C216.209 45.7784 214.021 46.4773 211.453 46.4773ZM211.453 42.7273C213.999 42.7273 215.976 41.5 217.385 39.0455C218.794 36.5909 219.499 33.0909 219.499 28.5455C219.499 25.5227 219.175 22.9489 218.527 20.8239C217.891 18.6989 216.97 17.0795 215.766 15.9659C214.572 14.8523 213.135 14.2955 211.453 14.2955C208.93 14.2955 206.959 15.5398 205.538 18.0284C204.118 20.5057 203.408 24.0114 203.408 28.5455C203.408 31.5682 203.726 34.1364 204.362 36.25C204.999 38.3636 205.913 39.9716 207.107 41.0739C208.311 42.1761 209.76 42.7273 211.453 42.7273ZM241.453 46.4773C238.885 46.4773 236.697 45.7784 234.891 44.3807C233.084 42.9716 231.703 40.9318 230.749 38.2614C229.794 35.5795 229.317 32.3409 229.317 28.5455C229.317 24.7727 229.794 21.5511 230.749 18.8807C231.714 16.1989 233.101 14.1534 234.908 12.7443C236.726 11.3239 238.908 10.6136 241.453 10.6136C243.999 10.6136 246.175 11.3239 247.982 12.7443C249.8 14.1534 251.186 16.1989 252.141 18.8807C253.107 21.5511 253.589 24.7727 253.589 28.5455C253.589 32.3409 253.112 35.5795 252.158 38.2614C251.203 40.9318 249.822 42.9716 248.016 44.3807C246.209 45.7784 244.021 46.4773 241.453 46.4773ZM241.453 42.7273C243.999 42.7273 245.976 41.5 247.385 39.0455C248.794 36.5909 249.499 33.0909 249.499 28.5455C249.499 25.5227 249.175 22.9489 248.527 20.8239C247.891 18.6989 246.97 17.0795 245.766 15.9659C244.572 14.8523 243.135 14.2955 241.453 14.2955C238.93 14.2955 236.959 15.5398 235.538 18.0284C234.118 20.5057 233.408 24.0114 233.408 28.5455C233.408 31.5682 233.726 34.1364 234.362 36.25C234.999 38.3636 235.913 39.9716 237.107 41.0739C238.311 42.1761 239.76 42.7273 241.453 42.7273Z" fill="#475569"/>
<path d="M7 33H257" stroke="#F43F5E" stroke-width="10" stroke-linecap="round"/>
</svg>
